<svg id="estnbxwP1ah1" xmlns="http://www.w3.org/2000/svg" xmlns:xlink="http://www.w3.org/1999/xlink" viewBox="0 147.552 1589.484328 647.448" shape-rendering="geometricPrecision" text-rendering="geometricPrecision"><defs><radialGradient id="estnbxwP1ah4-fill" cx="0" cy="0" r="1" spreadMethod="pad" gradientUnits="userSpaceOnUse" gradientTransform="matrix(0 238.243 -238.243 0 1123.11 259.246)"><stop id="estnbxwP1ah4-fill-0" offset="0%" stop-color="rgba(255,210,68,0.5)"/><stop id="estnbxwP1ah4-fill-1" offset="100%" stop-color="rgba(255,200,68,0)"/></radialGradient><radialGradient id="estnbxwP1ah5-fill" cx="0" cy="0" r="1" spreadMethod="pad" gradientUnits="userSpaceOnUse" gradientTransform="matrix(0 238.243 -238.243 0 753.111 565.246)"><stop id="estnbxwP1ah5-fill-0" offset="0%" stop-color="rgba(255,200,68,0.54)"/><stop id="estnbxwP1ah5-fill-1" offset="100%" stop-color="rgba(255,185,68,0)"/></radialGradient><filter id="estnbxwP1ah6-filter" x="-150%" width="400%" y="-150%" height="400%"><feGaussianBlur id="estnbxwP1ah6-filter-blur-0" stdDeviation="97,97" result="result"/></filter><linearGradient id="estnbxwP1ah7-fill" x1="258.7" y1="-229.7074" x2="142.89" y2="293.8676" spreadMethod="pad" gradientUnits="userSpaceOnUse" gradientTransform="translate(0 0)"><stop id="estnbxwP1ah7-fill-0" offset="0%" stop-color="#f9d126"/><stop id="estnbxwP1ah7-fill-1" offset="0%" stop-color="rgba(249,198,38,0.36)"/><stop id="estnbxwP1ah7-fill-2" offset="51%" stop-color="#f9c026"/><stop id="estnbxwP1ah7-fill-3" offset="100%" stop-color="#f9ab26"/><stop id="estnbxwP1ah7-fill-4" offset="100%" stop-color="rgba(249,38,174,0)"/></linearGradient><filter id="estnbxwP1ah8-filter" x="-150%" width="400%" y="-150%" height="400%"><feGaussianBlur id="estnbxwP1ah8-filter-blur-0" stdDeviation="152,152" result="result"/></filter></defs><g mask="url(#estnbxwP1ah10)"><g><path d="M862.574,-54.9121v55.867167l-53.621-.000004v.999997l53.621.00001v72.65433h-53.621v1h53.621v72.6546h-53.621v1h53.621v72.654h-53.621v1h53.621v72.654h-53.621v1h53.621v72.655h-53.621v1h53.621v72.654h-53.621v1h53.621v72.654h-53.621v1h53.621v55.869h1v-55.869h72.656v55.869h1v-55.869h72.65v55.869h1v-55.869h72.65v55.869h1v-55.869h72.66v55.869h1v-55.869h72.66v55.869h1v-55.869h72.65v55.869h1v-55.869h72.65v55.869h1v-55.869h58.12v-1h-58.12v-72.654h58.12v-1h-58.12v-72.654h58.12v-1h-58.12v-72.655h58.12v-1h-58.12v-72.654h58.12v-1h-58.12v-72.654h58.12v-1h-58.12v-72.6546h58.12v-1h-58.12v-72.65431h58.12v-1l-58.12-.000004v-55.867186h-1v55.867186h-72.65v-55.867186h-1v55.867186l-72.65-.000004v-55.867182h-1v55.867182l-72.66-.000004v-55.867178h-1v55.867178l-72.66-.000004v-55.867174h-1v55.867174l-72.65-.000004v-55.86717h-1v55.86717l-72.65-.000003v-55.867167h-1v55.867167h-72.656v-55.867167h-1ZM1378.15,516.535v-72.654h-72.65v72.654h72.65Zm-73.65,0v-72.654h-72.65v72.654h72.65Zm-73.65,0v-72.654h-72.66v72.654h72.66Zm-73.66,0v-72.654h-72.66v72.654h72.66Zm-73.66,0v-72.654h-72.65v72.654h72.65Zm-73.65,0v-72.654h-72.65v72.654h72.65Zm-73.65,0v-72.654h-72.656v72.654h72.656Zm0-73.654h-72.656v-72.654h72.656v72.654Zm73.65,0h-72.65v-72.654h72.65v72.654Zm73.65,0h-72.65v-72.654h72.65v72.654Zm73.66,0h-72.66v-72.654h72.66v72.654Zm73.66,0h-72.66v-72.654h72.66v72.654Zm73.65,0h-72.65v-72.654h72.65v72.654Zm73.65,0h-72.65v-72.654h72.65v72.654Zm0-73.654v-72.655h-72.65v72.655h72.65Zm-73.65,0v-72.655h-72.65v72.655h72.65Zm-73.65,0v-72.655h-72.66v72.655h72.66Zm-73.66,0v-72.655h-72.66v72.655h72.66Zm-73.66,0v-72.655h-72.65v72.655h72.65Zm-73.65,0v-72.655h-72.65v72.655h72.65Zm-73.65,0v-72.655h-72.656v72.655h72.656Zm0-73.655h-72.656v-72.654h72.656v72.654Zm73.65,0h-72.65v-72.654h72.65v72.654Zm73.65,0h-72.65v-72.654h72.65v72.654Zm73.66,0h-72.66v-72.654h72.66v72.654Zm73.66,0h-72.66v-72.654h72.66v72.654Zm73.65,0h-72.65v-72.654h72.65v72.654Zm73.65,0h-72.65v-72.654h72.65v72.654Zm0-73.654v-72.654h-72.65v72.654h72.65Zm-73.65,0v-72.654h-72.65v72.654h72.65Zm-73.65,0v-72.654h-72.66v72.654h72.66Zm-73.66,0v-72.654h-72.66v72.654h72.66Zm-73.66,0v-72.654h-72.65v72.654h72.65Zm-73.65,0v-72.654h-72.65v72.654h72.65Zm-73.65,0v-72.654h-72.656v72.654h72.656Zm0-73.654h-72.656v-72.6546h72.656v72.6546Zm73.65,0h-72.65v-72.6546h72.65v72.6546Zm73.65,0h-72.65v-72.6546h72.65v72.6546Zm73.66,0h-72.66v-72.6546h72.66v72.6546Zm73.66,0h-72.66v-72.6546h72.66v72.6546Zm73.65,0h-72.65v-72.6546h72.65v72.6546Zm73.65,0h-72.65v-72.6546h72.65v72.6546Zm0-73.6546v-72.65431h-72.65v72.65431h72.65Zm-73.65,0v-72.65431l-72.65-.00001v72.65432h72.65Zm-73.65,0v-72.65432h-72.66v72.65432h72.66Zm-73.66,0v-72.65432l-72.66-.00001v72.65433h72.66Zm-73.66,0v-72.65433h-72.65v72.65433h72.65Zm-73.65,0v-72.65433h-72.65v72.65433h72.65Zm-73.65,0v-72.65433h-72.656v72.65433h72.656Z" clip-rule="evenodd" fill="url(#estnbxwP1ah4-fill)" fill-rule="evenodd"/><path d="M492.574,251.088v55.867h-53.621v1h53.621v72.654h-53.621v1h53.621v72.655h-53.621v1h53.621v72.654h-53.621v1h53.621v72.654h-53.621v1h53.621v72.655h-53.621v1h53.621v72.654h-53.621v1h53.621v72.654h-53.621v1h53.621v55.869h1v-55.869h72.656v55.869h1v-55.869h72.648v55.869h1v-55.869h72.657v55.869h1v-55.869h72.656v55.869h1v-55.869h72.656v55.869h1v-55.869h72.649v55.869h1v-55.869h72.654v55.869h1v-55.869h58.12v-1h-58.12v-72.654h58.12v-1h-58.12v-72.654h58.12v-1h-58.12v-72.655h58.12v-1h-58.12v-72.654h58.12v-1h-58.12v-72.654h58.12v-1h-58.12v-72.655h58.12v-1h-58.12v-72.654h58.12v-1h-58.12v-55.867h-1v55.867h-72.654v-55.867h-1v55.867h-72.649v-55.867h-1v55.867h-72.656v-55.867h-1v55.867h-72.656v-55.867h-1v55.867h-72.657v-55.867h-1v55.867h-72.648v-55.867h-1v55.867h-72.656v-55.867h-1ZM1008.15,822.535v-72.654h-72.654v72.654h72.654Zm-73.654,0v-72.654h-72.649v72.654h72.649Zm-73.649,0v-72.654h-72.656v72.654h72.656Zm-73.656,0v-72.654h-72.656v72.654h72.656Zm-73.656,0v-72.654h-72.657v72.654h72.657Zm-73.657,0v-72.654h-72.648v72.654h72.648Zm-73.648,0v-72.654h-72.656v72.654h72.656Zm0-73.654h-72.656v-72.654h72.656v72.654Zm73.648,0h-72.648v-72.654h72.648v72.654Zm73.657,0h-72.657v-72.654h72.657v72.654Zm73.656,0h-72.656v-72.654h72.656v72.654Zm73.656,0h-72.656v-72.654h72.656v72.654Zm73.649,0h-72.649v-72.654h72.649v72.654Zm73.654,0h-72.654v-72.654h72.654v72.654Zm0-73.654v-72.655h-72.654v72.655h72.654Zm-73.654,0v-72.655h-72.649v72.655h72.649Zm-73.649,0v-72.655h-72.656v72.655h72.656Zm-73.656,0v-72.655h-72.656v72.655h72.656Zm-73.656,0v-72.655h-72.657v72.655h72.657Zm-73.657,0v-72.655h-72.648v72.655h72.648Zm-73.648,0v-72.655h-72.656v72.655h72.656Zm0-73.655h-72.656v-72.654h72.656v72.654Zm73.648,0h-72.648v-72.654h72.648v72.654Zm73.657,0h-72.657v-72.654h72.657v72.654Zm73.656,0h-72.656v-72.654h72.656v72.654Zm73.656,0h-72.656v-72.654h72.656v72.654Zm73.649,0h-72.649v-72.654h72.649v72.654Zm73.654,0h-72.654v-72.654h72.654v72.654Zm0-73.654v-72.654h-72.654v72.654h72.654Zm-73.654,0v-72.654h-72.649v72.654h72.649Zm-73.649,0v-72.654h-72.656v72.654h72.656Zm-73.656,0v-72.654h-72.656v72.654h72.656Zm-73.656,0v-72.654h-72.657v72.654h72.657Zm-73.657,0v-72.654h-72.648v72.654h72.648Zm-73.648,0v-72.654h-72.656v72.654h72.656Zm0-73.654h-72.656v-72.655h72.656v72.655Zm73.648,0h-72.648v-72.655h72.648v72.655Zm73.657,0h-72.657v-72.655h72.657v72.655Zm73.656,0h-72.656v-72.655h72.656v72.655Zm73.656,0h-72.656v-72.655h72.656v72.655Zm73.649,0h-72.649v-72.655h72.649v72.655Zm73.654,0h-72.654v-72.655h72.654v72.655Zm0-73.655v-72.654h-72.654v72.654h72.654Zm-73.654,0v-72.654h-72.649v72.654h72.649Zm-73.649,0v-72.654h-72.656v72.654h72.656Zm-73.656,0v-72.654h-72.656v72.654h72.656Zm-73.656,0v-72.654h-72.657v72.654h72.657Zm-73.657,0v-72.654h-72.648v72.654h72.648Zm-73.648,0v-72.654h-72.656v72.654h72.656Z" clip-rule="evenodd" fill="url(#estnbxwP1ah5-fill)" fill-rule="evenodd"/><g opacity="0.4" filter="url(#estnbxwP1ah6-filter)"><ellipse rx="278.006" ry="262.262" transform="matrix(-.922565-.385842 0.385842-.922565 1097.669009 90.219684)" fill="url(#estnbxwP1ah7-fill)" fill-opacity="0.23"/></g><g opacity="0.4" filter="url(#estnbxwP1ah8-filter)"><ellipse rx="362.917" ry="211.851" transform="matrix(.690184 0.723634-.723634 0.690184 645.777891-170.165269)" fill="#ffc844"/></g></g><mask id="estnbxwP1ah10" mask-type="alpha" x="-150%" y="-150%" height="400%" width="400%"><rect width="1572" height="795" rx="0" ry="0" fill="#d9d9d9"/></mask></g></svg>
